<?xml version="1.0" standalone="no"?>
<!DOCTYPE svg PUBLIC "-//W3C//DTD SVG 20010904//EN"
 "http://www.w3.org/TR/2001/REC-SVG-20010904/DTD/svg10.dtd">
<svg version="1.0" xmlns="http://www.w3.org/2000/svg"
 width="80" height="82" viewBox="0 0 828.000000 825.000000"
 preserveAspectRatio="xMidYMid meet">
<metadata>
Created by potrace 1.16, written by Peter Selinger 2001-2019
</metadata>
<g transform="translate(0.000000,825.000000) scale(0.100000,-0.100000)"
fill="#000000" stroke="none">
<path d="M2530 7640 c-44 -5 -100 -19 -135 -34 -33 -14 -66 -26 -73 -26 -44
-1 -141 -80 -206 -169 -74 -101 -189 -487 -200 -673 -3 -48 -11 -87 -20 -100
-13 -18 -16 -19 -16 -5 0 20 -16 23 -23 5 -4 -10 -6 -10 -6 0 -2 23 -21 2 -21
-23 0 -13 -6 -25 -12 -28 -10 -3 -10 -7 1 -20 7 -9 17 -14 22 -11 5 3 9 -2 9
-10 0 -16 -14 -20 -59 -16 -20 2 -23 -2 -19 -24 4 -21 0 -27 -24 -35 -33 -12
-50 -47 -57 -123 -1 -4 -8 -14 -17 -22 -13 -14 -13 -16 -1 -16 8 0 17 -10 20
-22 5 -17 9 -19 20 -10 10 8 20 8 39 -2 28 -15 35 -10 73 48 10 14 24 26 32
26 12 0 14 7 9 30 -3 17 -2 29 3 26 5 -3 14 1 21 8 9 12 7 19 -8 34 -16 16
-19 30 -16 74 6 70 9 77 32 71 17 -4 21 -16 25 -81 9 -141 28 -337 36 -372 5
-19 17 -69 28 -110 21 -79 23 -147 4 -142 -13 2 -15 -15 -3 -20 5 -1 12 -20
15 -41 3 -22 2 -35 -4 -32 -5 4 -9 -3 -9 -14 0 -16 6 -21 24 -21 13 0 26 6 29
13 3 9 10 7 25 -7 16 -14 21 -29 19 -65 -2 -76 58 -171 109 -171 21 0 24 -3
18 -25 -4 -16 -2 -25 6 -25 6 0 9 3 6 8 -2 4 2 16 10 27 14 18 31 21 192 26
171 6 258 18 332 44 63 22 129 35 185 35 40 0 57 4 61 15 10 26 30 17 69 -30
57 -70 102 -89 210 -89 100 0 178 25 226 71 32 30 69 125 73 188 3 53 11 64
59 75 48 10 61 -1 87 -75 12 -33 29 -77 36 -99 15 -40 7 -66 -21 -66 -8 0 -16
-6 -19 -12 -3 -7 -3 -3 0 9 8 34 -36 48 -90 31 -35 -11 -41 -17 -44 -44 -2
-18 1 -47 5 -64 8 -29 15 -35 63 -49 40 -12 56 -22 58 -36 10 -62 43 -95 95
-95 30 0 38 7 75 61 43 63 125 135 194 170 69 35 95 37 100 7 4 -31 66 -49
178 -53 75 -2 109 -9 160 -29 36 -15 83 -26 109 -26 38 0 48 -4 56 -22 22 -49
59 -62 174 -66 127 -5 148 2 229 76 58 54 64 67 28 60 -21 -4 -23 -2 -14 12
17 27 46 41 72 34 24 -6 23 -8 -41 -95 -75 -103 -119 -142 -182 -164 -82 -28
-170 -17 -270 35 -22 10 -72 22 -115 26 -75 7 -78 6 -106 -21 -17 -16 -30 -39
-30 -52 0 -23 14 -31 24 -14 3 4 25 14 48 20 55 15 118 3 208 -42 58 -28 74
-31 147 -31 l82 1 6 -40 c8 -47 -2 -57 -61 -57 -51 0 -95 15 -157 53 -81 49
-177 56 -185 14 -3 -14 5 -17 37 -17 34 0 48 -7 88 -45 26 -25 72 -59 101 -76
46 -27 60 -30 117 -27 73 3 69 12 37 -86 -10 -29 -34 -66 -59 -92 -24 -23 -43
-51 -43 -62 0 -12 18 -34 45 -53 44 -34 54 -52 35 -64 -5 -3 -24 -36 -40 -73
-90 -192 -93 -420 -10 -597 51 -110 109 -175 194 -220 l68 -37 -6 -40 c-7 -40
-59 -189 -76 -218 -5 -8 -23 -40 -40 -71 -50 -90 -113 -155 -181 -185 -91 -41
-104 -65 -104 -194 0 -94 3 -111 27 -160 34 -69 145 -178 216 -214 56 -28 72
-53 72 -109 0 -37 64 -142 111 -181 16 -14 67 -37 114 -51 l85 -27 66 34 c51
25 73 43 95 78 29 46 37 80 19 80 -5 0 -10 6 -10 14 0 22 -19 29 -36 15 -8 -6
-28 -13 -43 -14 -16 -2 -44 -14 -63 -28 -69 -52 -76 -52 -115 -15 -19 18 -41
45 -49 60 -15 29 -19 67 -6 69 4 1 20 3 35 5 30 3 110 63 126 92 14 28 41 175
41 228 1 75 16 127 77 264 88 196 210 408 268 466 21 20 34 24 89 24 42 0 85
7 118 20 29 11 72 25 96 30 42 10 61 18 192 77 75 35 185 139 219 206 66 135
110 286 111 378 0 20 3 50 6 66 l6 30 94 2 c81 2 104 -2 157 -23 34 -13 74
-26 89 -28 15 -2 30 -7 34 -11 9 -9 34 40 34 68 0 14 -9 26 -25 33 -14 7 -22
17 -19 25 2 7 0 25 -5 39 -5 14 -7 29 -3 33 4 4 7 10 7 13 1 14 30 52 40 52
12 0 35 47 35 69 -1 22 -29 54 -70 78 -40 24 -102 31 -288 34 l-133 2 -26 31
c-42 50 -54 91 -59 204 -8 161 -67 341 -140 422 -12 14 -38 59 -58 101 -19 41
-49 92 -66 113 -16 21 -30 42 -30 45 0 4 -15 24 -34 45 -19 20 -36 40 -38 44
-3 8 -77 65 -198 154 -84 61 -293 198 -303 198 -3 0 -34 18 -67 39 -34 22 -78
45 -98 52 -20 6 -55 22 -77 34 -22 12 -67 30 -100 39 -33 10 -94 29 -135 42
-41 13 -95 26 -120 29 -25 4 -99 16 -165 28 -196 36 -381 25 -595 -35 -41 -11
-115 -31 -165 -44 -96 -26 -185 -62 -185 -76 0 -13 -28 -9 -32 4 -3 7 1 24 9
38 7 14 13 57 13 100 -1 103 -40 202 -108 274 -32 33 -55 68 -61 94 -7 25 -19
43 -30 47 -10 3 -25 20 -32 38 -27 66 -132 195 -192 235 -20 14 -62 57 -91 96
-82 108 -233 244 -321 289 -107 55 -180 78 -270 87 -99 10 -106 10 -215 0z
m1079 -784 c28 -30 20 -47 -17 -40 -38 8 -140 -20 -167 -46 -12 -12 -35 -44
-51 -73 -25 -46 -29 -62 -28 -132 1 -79 5 -93 54 -187 32 -60 86 -83 196 -81
62 0 100 6 122 17 40 21 64 21 37 0 -26 -20 -92 -50 -128 -58 -33 -8 -148 18
-188 41 -34 21 -66 67 -98 143 -51 121 -35 321 26 336 19 5 21 9 12 20 -27 32
67 84 152 84 46 0 59 -4 78 -24z m59 -115 c20 -11 49 -32 63 -48 38 -42 69
-138 69 -216 0 -60 -2 -68 -25 -83 -34 -22 -38 -15 -20 30 39 93 -55 235 -148
223 -51 -7 -65 -20 -83 -83 -19 -65 -13 -101 27 -167 16 -26 29 -49 29 -51 0
-8 -77 12 -107 27 -70 37 -95 137 -64 250 31 110 160 169 259 118z m-13 -167
c21 -8 45 -56 45 -89 0 -14 -7 -41 -14 -60 -12 -28 -20 -35 -43 -35 -38 0 -63
42 -63 105 0 74 23 99 75 79z m1095 -155 c36 -5 94 -14 130 -18 121 -16 236
-57 258 -91 10 -17 9 -24 -8 -42 -25 -27 -27 -50 -2 -41 9 4 22 14 29 22 7 9
13 12 13 6 0 -5 6 1 13 15 10 20 20 25 47 24 38 -1 175 -57 243 -98 141 -87
339 -222 437 -299 9 -7 34 -25 57 -40 50 -35 109 -103 190 -221 63 -92 74
-127 23 -69 -36 40 -66 56 -90 48 -30 -9 -25 -23 25 -67 44 -39 81 -104 92
-163 l6 -30 -25 23 c-14 13 -33 43 -43 67 -9 24 -33 63 -54 85 l-38 42 -7 -27
c-5 -19 -10 -24 -19 -17 -23 19 -89 32 -108 21 -27 -14 -23 -27 14 -43 17 -8
42 -24 55 -35 l23 -20 -37 -55 c-20 -31 -41 -56 -45 -56 -5 0 -9 -10 -9 -23 0
-14 -17 -39 -45 -65 -25 -23 -45 -38 -45 -32 0 5 -15 8 -32 6 -34 -4 -117 20
-198 56 -97 44 -107 43 -190 -22 -19 -15 -60 -41 -90 -57 -52 -28 -55 -32 -66
-84 -18 -85 -102 -252 -144 -287 -58 -48 -146 -66 -184 -39 -17 12 -16 16 15
63 18 27 34 51 36 53 1 2 12 -6 23 -19 21 -24 46 -22 56 5 8 19 -12 44 -43 56
-22 8 -23 10 -9 43 25 60 28 117 12 194 l-15 73 59 56 c52 48 180 221 180 243
0 4 18 6 39 5 38 -2 40 -1 34 25 -3 15 0 31 6 34 6 4 11 12 11 18 0 6 -10 3
-22 -8 -19 -17 -21 -17 -15 -2 4 11 0 21 -11 27 -9 6 -12 11 -6 11 7 0 14 9
17 21 3 12 10 18 16 14 6 -3 11 -2 11 4 0 13 -29 41 -43 41 -17 0 -107 102
-107 122 0 9 -9 20 -20 23 -11 3 -20 10 -20 15 0 5 -15 11 -32 15 -18 4 -44
14 -56 22 -14 8 -34 12 -48 9 -22 -6 -24 -4 -24 32 0 45 -24 88 -35 61 -3 -10
-10 -39 -13 -65 l-7 -49 -45 2 c-25 1 -57 2 -72 2 -26 1 -95 50 -70 51 6 0 12
5 12 11 0 5 -4 8 -9 5 -5 -4 -11 -1 -13 4 -2 6 -47 13 -103 17 -55 3 -116 6
-135 8 -23 1 -36 8 -38 19 -5 25 20 74 40 79 10 3 18 11 18 17 0 8 -8 10 -22
6 -13 -3 -28 -6 -34 -6 -7 0 -15 -11 -18 -24 -3 -13 -15 -26 -26 -29 -11 -3
-20 -10 -20 -17 0 -6 5 -8 10 -5 6 3 10 1 10 -5 0 -6 -6 -10 -12 -9 -20 3 -48
-12 -48 -26 0 -6 -9 -20 -20 -30 -14 -13 -17 -22 -10 -35 8 -15 6 -17 -10 -13
-17 5 -20 0 -20 -26 0 -18 -5 -42 -11 -53 -15 -29 -69 -73 -90 -74 -22 -2 -68
-36 -69 -51 0 -7 -9 -13 -21 -13 -18 0 -20 4 -15 26 5 17 3 23 -4 19 -6 -4
-10 20 -10 70 0 90 -25 152 -77 193 -50 40 -65 69 -68 132 -1 31 -10 71 -19
88 -19 37 -26 32 89 62 44 12 127 34 185 50 104 29 186 43 330 57 71 8 97 6
250 -18z m-1400 -122 c42 -54 211 -108 295 -94 31 5 108 39 152 67 20 13 24
12 37 -5 9 -11 16 -28 16 -37 0 -13 -7 -16 -32 -12 -40 7 -74 -15 -65 -40 4
-10 12 -14 18 -11 5 4 25 4 44 1 23 -5 34 -13 38 -29 2 -12 8 -29 11 -38 5
-12 0 -18 -22 -22 -35 -7 -72 -39 -95 -82 l-16 -30 -1 58 c0 44 -3 57 -15 57
-21 0 -35 -41 -35 -106 0 -48 -2 -54 -20 -54 -12 0 -38 -9 -59 -19 l-38 -20
-29 50 c-22 38 -41 55 -84 77 -48 23 -66 27 -140 26 -151 -2 -260 -71 -260
-164 0 -17 -6 -32 -12 -34 -118 -36 -411 -95 -473 -95 -27 -1 -90 7 -138 17
l-89 19 34 35 c18 19 78 58 133 86 210 107 234 122 365 226 30 23 90 57 133
74 43 17 90 41 104 52 14 11 34 20 45 20 11 0 29 5 41 12 12 7 47 18 77 24 30
7 57 13 59 13 2 1 11 -9 21 -22z m636 -312 c30 -19 48 -92 39 -162 -6 -48 -13
-62 -42 -90 -44 -39 -57 -34 -104 38 -27 43 -33 61 -33 113 -1 49 4 68 23 94
21 31 27 33 60 27 20 -4 45 -13 57 -20z m-607 -36 c17 -6 31 -16 31 -21 0 -6
11 -8 26 -5 28 5 79 -37 95 -80 36 -96 -43 -232 -145 -247 -71 -11 -100 -1
-132 46 -23 32 -30 57 -35 117 -15 160 44 230 160 190z m-175 -31 c-13 -21
-17 -49 -17 -138 0 -99 8 -136 36 -167 25 -29 18 -29 -36 -2 -58 29 -77 48
-77 76 0 14 -6 23 -15 23 -21 0 -19 7 10 42 27 31 32 57 15 74 -17 17 5 60 46
88 39 26 52 28 38 4z m1851 -290 c14 -6 25 -17 25 -24 0 -15 -140 -123 -183
-142 -36 -15 -113 -15 -151 1 l-29 13 39 12 c21 6 62 19 91 28 32 10 75 36
115 69 34 30 64 54 65 54 1 1 14 -4 28 -11z m-1333 -45 c18 -16 21 -16 53 1
l34 19 40 -33 c23 -17 41 -36 41 -42 0 -5 -13 -22 -28 -36 -16 -15 -34 -37
-41 -50 -14 -26 -31 -20 -31 11 0 12 -9 36 -19 53 -15 25 -29 34 -60 39 -44 7
-56 18 -47 40 7 20 35 19 58 -2z m1848 -349 c30 -14 89 -37 130 -51 87 -29 89
-31 70 -43 -13 -8 -13 -12 3 -27 10 -10 41 -32 70 -49 43 -25 53 -36 58 -65 6
-36 39 -94 83 -144 14 -16 26 -33 26 -37 0 -4 27 -25 60 -48 92 -62 107 -80
115 -132 8 -56 -7 -112 -42 -149 -14 -15 -21 -29 -16 -32 14 -8 63 -5 69 4 3
5 10 7 15 3 6 -3 17 13 26 35 9 23 20 41 24 41 9 0 49 82 49 99 0 15 52 14 87
-1 26 -11 26 -12 7 -15 -16 -3 -25 -16 -34 -48 -14 -48 -9 -75 14 -75 16 0 15
-94 -2 -190 -5 -30 -8 -58 -6 -62 3 -4 -8 -30 -23 -59 -38 -72 -143 -172 -230
-221 -40 -22 -75 -44 -79 -49 -3 -5 -13 -9 -22 -9 -9 0 -33 -17 -52 -36 -54
-56 -89 -66 -234 -72 l-130 -5 -39 -43 c-22 -24 -46 -44 -54 -44 -7 0 -13 -6
-13 -12 0 -9 -4 -8 -10 2 -8 12 -10 11 -10 -6 0 -14 -8 -24 -22 -28 -19 -5
-21 -8 -8 -16 13 -8 12 -10 -2 -10 -21 0 -22 -4 -7 -32 8 -15 8 -19 0 -14 -7
5 -14 -4 -17 -24 -4 -17 -11 -33 -15 -36 -5 -3 -9 -13 -9 -23 0 -21 -38 -35
-55 -21 -7 6 -15 7 -18 3 -4 -3 -7 7 -7 23 l0 28 -16 -22 c-14 -21 -14 -24 5
-48 22 -28 28 -78 11 -89 -6 -4 -8 -10 -6 -14 3 -4 -8 -18 -24 -31 -21 -18
-26 -27 -19 -37 8 -9 4 -14 -15 -19 -17 -4 -26 -13 -26 -25 0 -10 -4 -19 -10
-19 -5 0 -10 -7 -10 -15 0 -10 11 -15 33 -16 17 0 41 -4 52 -9 19 -8 19 -8 -5
-18 -19 -7 -29 -6 -42 5 -10 9 -24 13 -33 10 -27 -11 -16 -46 26 -90 61 -62
81 -114 85 -222 l4 -90 -14 56 c-19 72 -58 157 -88 190 -80 89 -233 169 -322
169 -67 0 -32 11 45 14 80 3 101 19 50 39 -31 11 -40 30 -21 42 6 4 32 43 58
88 69 119 128 285 134 376 3 38 0 46 -17 50 -43 12 -144 83 -177 123 -19 24
-51 78 -72 122 -36 73 -39 85 -43 190 -5 98 -2 123 21 209 15 54 37 120 50
146 27 53 89 108 158 141 30 14 61 41 90 78 64 81 127 208 135 271 5 33 12 41
70 77 35 21 74 49 85 62 27 28 31 28 98 -4z m606 -244 c12 0 26 5 29 10 7 12
57 2 67 -13 3 -6 9 -30 13 -54 10 -65 46 -153 79 -190 18 -21 18 -23 2 -23
-24 0 -78 26 -102 49 -40 38 -120 136 -143 174 -17 29 -20 41 -11 47 8 5 6 9
-7 15 -17 7 -17 8 2 15 14 6 24 3 34 -11 7 -10 24 -19 37 -19z m-1177 -1886
c49 -18 152 -94 106 -79 -29 10 -155 19 -155 12 0 -4 17 -18 38 -31 75 -47
130 -117 112 -141 -4 -5 -18 -41 -30 -80 -13 -38 -26 -74 -31 -78 -11 -13
-116 58 -176 119 -71 71 -92 114 -99 205 l-7 74 33 15 c39 19 129 12 209 -16z"/>
<path d="M3233 6178 c-64 -11 -92 -26 -113 -60 -22 -37 -24 -47 -11 -67 7 -10
23 -3 76 33 57 39 75 46 115 46 46 0 60 10 60 40 0 11 -80 16 -127 8z"/>
<path d="M5512 5033 c-75 -50 -176 -204 -231 -353 -7 -19 -18 -46 -25 -59 -20
-42 -12 -332 12 -419 22 -80 45 -122 67 -122 17 0 18 8 4 70 -16 77 -27 287
-18 378 8 87 27 145 86 257 41 79 110 172 153 207 76 60 35 95 -48 41z"/>
<path d="M4969 4617 c-50 -38 -81 -148 -86 -306 -5 -151 7 -192 77 -266 26
-27 56 -66 68 -85 20 -35 88 -97 127 -117 31 -16 115 -26 115 -14 0 6 -6 11
-13 11 -21 0 -120 78 -135 105 -15 29 -13 28 86 -23 58 -30 73 -33 157 -35 76
-2 96 1 112 16 16 14 40 17 139 17 141 1 137 16 -11 38 -190 27 -201 27 -239
-2 -42 -32 -45 -32 -106 -1 -34 17 -66 25 -102 25 -52 0 -53 1 -99 58 -25 31
-52 68 -59 82 -18 34 -8 307 14 370 35 100 10 169 -45 127z"/>
<path d="M5857 4283 c-4 -3 -32 -10 -62 -14 -63 -8 -135 -38 -135 -55 0 -29
127 -32 189 -4 24 11 62 20 86 20 30 0 47 6 61 21 16 17 16 22 4 29 -17 11
-133 13 -143 3z"/>
<path d="M7555 6660 c3 -6 2 -10 -4 -10 -9 0 -20 -22 -22 -45 0 -5 -7 -14 -15
-18 -8 -4 -14 -19 -14 -32 0 -14 -6 -25 -13 -25 -6 0 -24 -20 -40 -45 -18 -30
-33 -45 -44 -43 -10 2 -19 -5 -21 -16 -2 -11 -15 -31 -29 -45 -13 -14 -31 -38
-39 -53 -8 -16 -19 -28 -25 -28 -6 0 -9 -9 -6 -20 3 -13 -1 -24 -13 -30 -10
-5 -26 -30 -36 -55 -9 -25 -25 -50 -36 -56 -10 -5 -18 -16 -18 -23 0 -8 -7
-19 -15 -26 -8 -7 -15 -21 -15 -31 0 -11 -4 -19 -10 -19 -5 0 -10 -5 -10 -10
0 -11 -86 -149 -120 -192 -24 -31 -40 -79 -40 -120 0 -27 -7 -32 -40 -29 -9 1
-16 -8 -16 -24 -1 -15 -9 -32 -18 -38 -33 -25 -53 -128 -28 -147 4 -3 12 -18
17 -35 8 -22 17 -30 35 -30 17 0 24 -5 23 -16 -4 -19 50 -18 74 2 8 8 28 12
44 11 18 -2 29 1 29 8 0 7 8 10 20 7 15 -4 20 0 20 14 0 20 -18 22 -33 4 -5
-6 -6 -2 -3 8 3 10 6 23 6 29 0 6 6 8 13 5 8 -3 14 3 14 14 1 10 -2 19 -8 19
-5 0 -9 5 -9 10 0 6 12 10 26 10 16 0 24 5 21 13 -2 6 3 17 10 22 8 6 15 19
17 30 2 14 10 19 24 17 17 -2 20 1 17 17 -2 14 1 21 11 21 8 0 14 5 14 11 0 6
7 9 15 5 17 -6 45 19 45 41 0 14 -4 12 -23 -5 -29 -27 -33 -27 -33 -2 0 11 7
20 14 20 11 0 12 3 4 13 -7 7 -7 18 -2 27 7 11 11 11 24 1 11 -9 16 -10 16 -2
0 14 37 15 45 1 10 -17 42 7 53 40 6 16 15 30 21 30 10 0 112 149 132 192 10
24 10 31 -6 48 -10 11 -13 20 -7 20 7 0 12 -6 12 -12 1 -7 8 -1 16 15 8 15 19
27 24 27 11 0 40 29 40 41 0 5 -11 9 -25 9 -30 0 -33 20 -5 27 11 3 20 11 20
18 0 16 29 73 41 80 5 4 9 19 9 34 0 37 22 79 38 73 6 -2 12 -1 12 3 0 9 -37
75 -65 115 -13 19 -39 56 -57 82 -18 26 -39 50 -46 53 -7 2 -10 0 -7 -5z"/>
<path d="M8026 5804 c-9 -8 -16 -22 -16 -31 0 -9 -7 -21 -15 -27 -9 -6 -17
-26 -19 -43 -3 -18 -12 -40 -20 -49 -9 -8 -16 -22 -16 -30 0 -8 -4 -14 -9 -14
-5 0 -30 -20 -54 -45 -25 -25 -52 -45 -60 -45 -8 0 -18 -8 -21 -17 -4 -10 -4
-14 0 -10 4 4 13 2 20 -4 11 -9 11 -13 0 -25 -8 -7 -17 -30 -21 -51 -4 -21
-10 -40 -14 -43 -16 -12 -51 -83 -51 -105 0 -12 -6 -25 -14 -28 -9 -4 -12 -14
-9 -26 4 -16 1 -21 -13 -21 -13 0 -27 -17 -44 -51 -13 -27 -32 -57 -42 -66
-10 -9 -18 -22 -18 -30 0 -7 -4 -13 -8 -13 -4 0 -8 -9 -9 -19 -1 -11 -11 -29
-22 -40 -12 -12 -21 -25 -21 -31 0 -5 -5 -10 -11 -10 -6 0 -8 9 -4 20 8 25 -7
26 -28 2 -23 -25 -22 -29 11 -46 15 -8 21 -15 15 -16 -7 0 -13 -11 -13 -24 0
-12 -10 -34 -22 -47 -13 -14 -23 -29 -24 -34 -1 -20 -24 -65 -33 -65 -9 0 -61
-100 -61 -118 0 -5 -13 -33 -30 -63 -16 -30 -30 -62 -30 -71 0 -9 -9 -24 -21
-32 -12 -8 -18 -19 -15 -25 4 -5 -4 -17 -17 -26 -16 -10 -24 -25 -25 -44 0
-16 -11 -46 -25 -68 -13 -21 -26 -46 -30 -55 -3 -10 -12 -18 -18 -18 -7 0 -2
-9 10 -19 22 -19 22 -19 2 -26 -16 -5 -21 -15 -21 -38 0 -24 3 -28 10 -17 8
12 10 12 10 -5 0 -11 -9 -26 -20 -33 -12 -7 -20 -8 -20 -2 0 22 -20 9 -26 -17
-4 -15 -13 -34 -21 -41 -7 -7 -13 -24 -13 -38 0 -13 -4 -24 -8 -24 -5 0 -16
-19 -27 -42 -10 -24 -21 -45 -25 -48 -15 -11 -27 -66 -19 -88 12 -32 32 -28
25 6 -3 15 -3 22 0 16 3 -7 14 -10 24 -7 25 7 28 -28 5 -47 -8 -7 -15 -25 -15
-41 0 -16 -5 -29 -11 -29 -5 0 -7 4 -4 10 3 6 -1 7 -9 4 -9 -3 -16 -1 -16 5 0
6 -7 11 -16 11 -8 0 -12 5 -9 11 4 6 13 8 21 5 8 -3 14 1 14 10 0 8 -4 12 -10
9 -5 -3 -10 1 -10 9 0 20 -30 21 -31 1 -1 -8 -2 -21 -3 -27 -1 -7 -12 -19 -25
-27 -17 -9 -20 -15 -11 -21 10 -6 8 -12 -8 -25 -11 -10 -18 -24 -15 -32 3 -7
0 -20 -7 -28 -7 -8 -10 -26 -8 -40 5 -23 2 -26 -19 -24 -9 0 -21 -36 -22 -68
-1 -14 5 -23 14 -23 12 0 13 -4 5 -19 -5 -11 -10 -27 -10 -36 0 -15 1 -15 16
0 14 13 19 14 25 4 4 -8 4 -16 -1 -19 -14 -9 -17 -75 -2 -72 14 2 16 -14 3
-23 -5 -3 -13 -1 -16 5 -4 6 -16 8 -27 4 -18 -5 -20 -3 -16 25 2 17 1 31 -3
31 -4 0 -3 17 2 38 12 54 11 57 -11 37 -12 -10 -18 -25 -16 -32 3 -7 -4 -21
-15 -32 l-21 -19 21 -7 c29 -9 28 -37 -1 -33 -21 3 -23 -1 -23 -39 0 -22 -3
-39 -7 -36 -5 2 -8 -1 -8 -6 0 -6 5 -11 10 -11 6 0 8 -11 4 -27 -5 -23 -4 -26
7 -15 21 19 29 14 29 -20 0 -17 3 -29 6 -26 3 3 16 -5 30 -19 30 -30 26 -69
-13 -120 -13 -18 -20 -33 -16 -33 4 0 3 -4 -4 -8 -7 -4 -14 -27 -15 -50 -2
-23 -6 -42 -9 -42 -4 0 -9 -11 -11 -25 -7 -35 14 -32 45 8 14 17 33 41 44 52
34 37 54 76 48 95 -6 20 10 37 20 20 3 -5 13 -10 21 -10 11 0 13 9 8 39 -5 34
-3 40 15 46 15 4 21 14 20 33 -1 55 10 102 30 128 12 15 21 39 21 55 0 19 6
30 20 34 22 7 26 20 9 31 -8 4 -7 9 2 14 10 7 10 12 -1 25 -8 10 -15 30 -15
45 -1 21 3 26 16 23 10 -3 15 -11 12 -19 -11 -29 25 -13 37 16 7 17 17 30 22
30 5 0 7 4 3 10 -3 5 3 18 15 30 11 11 20 22 20 25 0 11 41 45 52 43 7 -2 14
7 16 20 2 15 -2 22 -12 22 -9 0 -16 4 -16 10 0 5 7 7 16 3 13 -5 15 -2 10 15
-4 11 -2 23 3 26 6 4 8 12 5 19 -2 7 7 24 21 37 18 17 25 34 25 60 0 32 5 38
50 65 29 17 48 35 46 42 -3 7 2 19 10 28 13 12 14 19 4 30 -9 11 -9 15 -1 15
16 0 51 37 54 58 2 9 9 27 15 40 7 12 10 22 6 22 -15 0 22 32 55 48 20 9 40
18 45 20 5 3 6 0 2 -7 -4 -6 -3 -11 2 -11 5 0 15 14 22 30 7 17 19 30 26 30
22 0 16 37 -6 43 -11 3 -20 2 -20 -3 0 -16 -28 -18 -34 -3 -4 9 1 17 14 20 11
3 17 9 14 14 -3 5 2 9 10 9 9 0 16 5 16 11 0 5 -4 7 -10 4 -17 -10 1 59 19 73
9 7 15 20 13 28 -2 8 4 14 13 14 11 0 15 -6 10 -19 -5 -16 20 -51 29 -40 27
32 57 104 52 123 -4 18 -2 23 10 22 19 -1 72 96 78 141 3 26 -1 33 -17 35 -19
3 -20 4 -4 20 9 9 17 26 17 37 0 27 12 27 28 1 12 -20 13 -20 33 -1 16 15 19
26 14 51 -5 25 -11 30 -26 25 -26 -8 -24 9 3 35 26 24 44 21 41 -9 -4 -28 13
-27 29 2 10 18 37 86 38 95 0 1 -7 2 -16 2 -11 0 -14 5 -10 16 3 9 6 20 6 26
0 6 6 8 14 5 10 -4 12 0 9 14 -3 10 -9 17 -13 14 -4 -3 1 12 11 32 11 21 19
54 19 75 0 28 4 38 16 38 8 0 12 5 9 10 -4 6 1 22 9 35 12 19 25 25 50 25 19
0 41 3 50 6 18 7 22 24 6 24 -5 0 -19 9 -30 20 -18 18 -18 21 -3 35 12 12 13
19 4 28 -6 6 -11 15 -11 21 0 5 6 1 14 -9 13 -18 15 -17 30 19 9 21 16 42 16
47 0 4 7 14 15 22 12 13 12 23 -6 83 -12 38 -25 78 -29 89 -70 180 -89 225
-95 225 -2 0 -11 -7 -19 -16z m-871 -2091 c-2 -10 -8 -31 -14 -47 -6 -16 -9
-37 -5 -48 4 -13 -3 -27 -20 -43 -14 -13 -26 -22 -26 -19 0 3 -6 -1 -14 -8 -8
-7 -13 -17 -13 -23 1 -5 -8 -9 -20 -7 -13 2 -23 -2 -23 -7 0 -6 11 -11 24 -11
13 0 26 -7 30 -15 3 -8 0 -15 -7 -15 -8 0 -7 -4 3 -11 12 -9 11 -10 -8 -6 -15
4 -27 -1 -37 -16 -16 -23 -65 -30 -65 -9 0 7 4 11 9 7 6 -3 15 4 21 15 8 15 8
20 -1 20 -8 0 -8 4 -2 13 5 6 10 32 11 56 0 24 8 51 17 61 9 10 15 24 14 32
-5 22 21 60 37 54 19 -7 57 12 49 24 -3 5 5 11 17 13 13 2 24 5 25 6 1 0 0 -7
-2 -16z"/>
<path d="M1410 5635 c-13 -25 -40 -35 -40 -15 0 14 -11 12 -34 -5 -15 -11 -16
-17 -7 -29 9 -11 6 -15 -21 -20 -18 -4 -41 -7 -50 -7 -25 0 -22 -16 3 -22 12
-3 18 -10 14 -16 -4 -8 -12 -8 -25 -1 -23 13 -50 3 -51 -19 0 -9 -2 -26 -3
-38 -2 -13 2 -23 8 -23 6 0 22 -3 35 -7 17 -4 22 -2 19 7 -6 18 29 53 44 44 6
-4 9 -3 6 2 -3 5 3 17 14 27 12 12 18 13 20 5 3 -26 4 -33 12 -55 15 -45 -34
-83 -106 -83 -19 0 -27 -4 -22 -11 4 -7 1 -10 -7 -7 -7 2 -17 19 -21 36 -10
36 -44 45 -55 15 -9 -25 -84 -92 -110 -99 -25 -7 -30 -20 -11 -26 7 -3 13 -13
13 -24 0 -15 6 -18 30 -16 17 2 38 11 48 19 16 15 17 14 17 -3 0 -17 7 -19 68
-18 37 1 82 6 101 12 19 6 39 9 45 6 6 -3 3 1 -8 10 -16 13 -16 17 -5 29 8 7
18 14 24 14 17 2 18 23 1 23 -9 0 -16 5 -16 10 0 6 4 10 10 10 5 0 14 10 21
21 7 13 7 19 1 15 -6 -3 -13 -2 -16 2 -6 11 43 59 52 52 4 -3 8 2 10 12 2 9
-5 18 -15 21 -17 4 -17 5 0 6 9 0 17 8 17 16 0 9 6 18 14 21 11 4 12 13 6 35
-5 16 -7 45 -5 64 4 41 -6 45 -25 10z"/>
<path d="M4081 5509 c-40 -10 -74 -19 -75 -21 0 -2 -7 -13 -14 -26 -7 -13 -10
-27 -7 -32 9 -15 51 -12 65 5 7 8 21 15 32 15 11 0 28 5 39 11 33 17 79 0 130
-51 39 -39 49 -57 59 -106 17 -82 94 -210 166 -275 36 -32 119 -82 162 -97 69
-24 257 19 257 58 0 13 -18 14 -115 11 -110 -3 -118 -2 -165 24 -94 51 -128
95 -230 290 -101 194 -156 230 -304 194z"/>
<path d="M3464 5497 c-23 -13 -89 -88 -97 -109 -3 -10 -10 -10 -31 2 -31 16
-61 16 -123 -1 -37 -10 -47 -9 -87 11 -35 17 -55 20 -86 15 -24 -4 -40 -3 -40
3 0 15 -100 43 -138 39 -19 -2 -37 -10 -42 -17 -5 -9 -9 -9 -11 -1 -6 16 -69
-16 -69 -35 0 -8 5 -14 11 -14 5 0 7 -5 4 -10 -5 -8 -11 -8 -20 0 -9 8 -14 3
-19 -21 -9 -46 -9 -46 27 -41 22 3 29 1 22 -6 -5 -6 -30 -12 -55 -14 -36 -2
-45 -7 -48 -23 -2 -11 -6 -27 -9 -35 -3 -8 -5 -18 -5 -22 1 -5 -7 -8 -17 -8
-11 0 -23 -5 -26 -11 -4 -6 -13 -8 -20 -5 -15 5 -35 -29 -39 -66 -4 -36 -16
-50 -37 -45 -13 4 -19 0 -19 -11 0 -10 -9 -28 -20 -42 -11 -14 -20 -28 -20
-31 0 -3 -17 -24 -39 -46 -24 -26 -38 -51 -38 -67 0 -16 -14 -40 -37 -63 -20
-21 -39 -48 -42 -60 -4 -13 -9 -23 -13 -23 -3 0 -12 -9 -19 -21 -22 -35 9 -48
100 -44 58 3 80 0 88 -11 10 -11 9 -15 -4 -20 -18 -7 -22 -44 -5 -44 15 0 46
18 96 56 25 19 50 34 58 34 7 0 18 7 25 15 12 14 72 58 110 79 27 16 -44 -55
-85 -85 -50 -36 -128 -88 -225 -150 -89 -56 -134 -95 -125 -109 12 -20 42 -9
145 56 58 36 116 70 129 75 43 17 185 126 261 201 87 86 138 159 169 243 22
59 68 161 99 220 16 31 70 85 86 85 5 0 -12 -21 -38 -47 -34 -33 -46 -53 -44
-68 3 -12 -1 -27 -9 -33 -7 -7 -13 -23 -13 -35 0 -26 -17 -72 -53 -147 -15
-30 -27 -62 -27 -70 0 -9 -5 -21 -12 -28 -11 -11 -14 -78 -6 -126 2 -15 -12
-28 -57 -54 -33 -19 -80 -41 -105 -50 -57 -19 -97 -49 -185 -137 -83 -84 -133
-170 -186 -324 -42 -122 -48 -154 -25 -145 14 5 27 30 129 244 34 70 62 112
109 160 77 80 97 94 223 155 132 65 182 100 195 141 6 18 10 72 8 121 -3 88
-3 88 45 183 43 87 161 259 187 275 41 25 8 -75 -41 -126 -22 -23 -49 -60 -61
-83 -11 -22 -28 -52 -38 -66 -20 -29 -33 -77 -25 -90 13 -22 38 9 97 121 l63
120 3 -108 c3 -108 -1 -131 -40 -246 -31 -93 -6 -92 38 1 31 66 53 156 54 223
0 78 29 218 54 267 27 51 84 102 114 102 11 0 23 8 26 17 14 36 -54 56 -100
30z m-544 -340 c-22 -47 -40 -91 -40 -99 0 -17 -36 -58 -51 -58 -6 0 -34 -22
-62 -49 -58 -54 -120 -91 -155 -91 -19 0 -22 4 -16 28 8 32 16 38 69 54 85 25
185 118 185 173 0 17 103 150 108 137 1 -5 -15 -48 -38 -95z"/>
<path d="M2075 5426 c-43 -19 -316 -304 -373 -389 -26 -40 -52 -77 -58 -84
-11 -12 -69 -127 -84 -168 -9 -24 -48 -109 -67 -147 -7 -14 -13 -35 -13 -46 0
-12 -4 -24 -10 -27 -5 -3 -10 -15 -10 -26 0 -11 -9 -30 -20 -41 -15 -16 -17
-24 -8 -29 10 -6 10 -15 0 -41 -17 -41 -47 -162 -72 -288 -15 -74 -19 -140
-19 -300 -1 -269 12 -360 121 -845 27 -121 84 -319 131 -450 60 -169 84 -255
73 -255 -7 0 -17 5 -23 11 -7 7 -14 1 -23 -22 -12 -28 -11 -33 3 -44 24 -17
21 -25 -10 -26 -18 -1 -22 -3 -10 -6 10 -3 17 -8 15 -11 -2 -4 -11 -28 -22
-55 -10 -26 -23 -47 -27 -47 -5 0 -9 -13 -9 -28 0 -30 -25 -88 -47 -110 -7 -7
-13 -19 -13 -27 0 -7 -7 -15 -15 -19 -8 -3 -12 -12 -9 -21 3 -8 1 -15 -5 -15
-6 0 -11 -11 -11 -25 0 -14 -4 -25 -10 -25 -5 0 -10 -9 -10 -20 0 -10 -12 -31
-27 -47 -16 -15 -27 -27 -25 -28 5 0 -8 -37 -21 -60 -6 -11 -17 -33 -25 -49
-9 -16 -25 -40 -36 -54 -12 -13 -22 -38 -23 -55 -2 -51 -3 -53 -13 -37 -8 13
-10 13 -10 -1 0 -9 -7 -19 -15 -23 -8 -3 -20 -16 -25 -28 -15 -36 -34 -62 -50
-72 -12 -8 -11 -11 5 -17 17 -7 18 -8 3 -8 -33 -2 -19 -40 34 -91 55 -54 58
-56 75 -39 8 8 21 6 48 -7 21 -9 45 -17 54 -16 9 1 34 3 55 4 27 2 42 9 50 23
6 11 12 22 14 24 1 3 11 -5 23 -17 21 -23 39 -21 39 3 0 8 16 16 40 20 33 6
40 11 40 29 0 12 5 27 12 34 7 7 8 12 2 12 -5 0 -2 5 6 10 13 9 13 11 0 20
-13 8 -12 10 3 10 10 0 16 4 12 9 -3 5 0 13 6 17 9 5 7 11 -5 20 -14 10 -15
16 -6 33 6 12 8 26 5 31 -3 6 1 10 9 10 19 0 20 -13 6 -41 -6 -10 -8 -19 -5
-19 10 0 35 28 35 38 0 6 6 13 13 15 7 3 5 6 -6 6 -15 1 -16 5 -7 21 7 13 21
20 41 20 30 0 30 1 27 47 -4 59 -27 69 -47 21 -11 -26 -15 -29 -18 -15 -3 10
-1 26 3 35 9 20 11 28 13 43 1 15 71 4 81 -12 5 -7 14 -4 29 12 l21 22 30 -31
c34 -36 65 -43 56 -14 -4 12 1 26 14 37 11 10 20 31 20 46 0 15 5 31 11 35 6
3 9 15 6 25 -3 11 -2 19 2 19 13 0 105 -74 175 -140 57 -54 207 -170 220 -170
2 0 30 -18 62 -41 33 -22 87 -58 120 -80 l62 -40 -34 -91 c-19 -50 -41 -105
-49 -121 -8 -17 -15 -36 -15 -43 0 -6 28 -26 63 -44 34 -18 66 -36 71 -41 14
-12 39 -11 31 1 -3 6 4 14 17 19 13 6 17 10 9 10 -8 1 -11 7 -6 18 4 10 8 27
11 38 2 11 12 27 23 36 10 8 20 24 22 34 6 31 29 30 29 -1 0 -21 3 -25 12 -16
9 9 9 18 0 37 -15 33 -15 35 3 35 10 0 15 -10 15 -27 l1 -28 18 23 c23 27 30
27 78 3 21 -11 70 -34 108 -51 39 -18 84 -38 100 -46 90 -41 311 -103 460
-128 187 -32 220 -36 340 -42 66 -3 145 -12 175 -20 30 -8 83 -14 117 -14 58
0 63 -2 64 -22 0 -13 3 -17 6 -10 6 14 53 17 53 2 0 -5 -7 -7 -15 -4 -10 4
-15 0 -15 -11 0 -11 5 -15 15 -11 19 7 19 -1 0 -21 -8 -8 -12 -19 -9 -25 5 -7
2 -8 -5 -4 -7 5 -10 14 -7 22 4 10 -4 14 -29 14 -19 0 -35 5 -35 11 0 6 -8 9
-17 7 -12 -2 -19 -14 -20 -33 -3 -48 -15 -95 -24 -101 -5 -3 -9 6 -9 20 0 18
-4 24 -15 20 -8 -4 -15 -1 -15 5 0 6 9 11 21 11 11 0 18 4 14 10 -12 20 -75
-23 -75 -51 0 -10 -5 -19 -11 -21 -5 -2 -11 -10 -12 -18 -2 -8 -6 -21 -11 -28
-7 -11 -4 -11 12 -1 12 7 18 17 15 22 -4 6 9 7 31 3 23 -4 36 -3 36 4 0 5 11
10 25 10 20 0 29 8 40 33 8 17 14 27 15 20 0 -17 30 -4 30 13 0 9 11 14 29 14
17 0 33 5 37 11 4 8 9 7 15 -2 5 -8 9 -9 9 -3 0 6 11 10 25 9 14 -2 23 0 20 5
-3 5 0 10 6 12 13 4 -10 32 -33 41 -27 11 14 25 45 16 38 -11 45 -18 27 -29
-11 -7 -3 -10 28 -10 31 0 42 4 42 15 0 8 5 15 10 15 6 0 10 9 10 20 0 10 9
24 20 30 24 13 26 30 4 30 -11 0 -14 5 -10 16 3 9 6 18 6 20 0 2 8 4 17 4 9 0
13 3 10 7 -4 3 5 15 20 25 41 28 324 168 340 168 8 0 38 16 68 35 30 19 66 37
80 41 14 3 25 10 25 15 0 5 33 30 73 56 39 27 76 53 80 58 4 6 6 31 3 56 -6
61 15 82 148 145 66 32 146 113 156 159 18 77 13 130 -16 158 -40 41 -142 85
-229 101 -221 39 -340 47 -462 31 -88 -11 -95 -7 -78 48 7 25 21 60 31 78 25
49 99 144 131 167 23 17 25 22 14 36 -22 26 -49 19 -98 -26 -79 -74 -135 -155
-155 -226 -9 -36 -19 -66 -21 -68 -2 -2 -17 0 -33 5 -16 4 -60 4 -99 0 -38 -4
-85 -8 -102 -8 l-33 -1 0 56 c0 75 -22 120 -66 134 -41 14 -84 6 -84 -15 0
-50 -213 -213 -333 -254 -30 -11 -68 -26 -85 -35 -17 -9 -50 -16 -74 -16 -62
0 -88 -9 -88 -31 0 -13 7 -19 23 -20 12 0 42 -2 66 -4 31 -2 69 6 123 26 44
16 81 29 83 29 2 0 1 -18 -2 -40 -3 -22 0 -53 7 -70 12 -30 81 -83 143 -111
26 -12 67 -72 67 -99 0 -25 -30 -6 -54 35 -26 43 -56 59 -71 35 -7 -11 36 -97
64 -127 30 -32 114 -46 244 -39 185 8 517 10 590 2 75 -8 87 -25 45 -62 -48
-42 -110 -60 -297 -85 -75 -10 -86 -9 -96 5 -7 9 -27 19 -44 22 -25 5 -36 2
-53 -15 -11 -12 -26 -20 -34 -17 -17 7 -19 -20 -1 -28 8 -4 7 -5 -3 -4 -8 1
-33 -6 -55 -16 -73 -31 -118 -39 -165 -26 -24 6 -49 18 -57 26 -8 8 -26 17
-41 20 -15 3 -52 16 -82 29 -82 35 -126 41 -134 19 -8 -22 24 -49 68 -58 16
-3 51 -19 77 -36 70 -43 145 -65 220 -65 66 0 66 0 64 -28 -1 -15 -5 -30 -8
-33 -3 -4 -45 -10 -93 -15 l-87 -9 -94 50 c-99 53 -118 58 -126 36 -9 -23 13
-41 117 -99 l98 -56 69 6 c78 7 82 2 48 -54 -25 -40 -62 -43 -67 -5 -4 27 -22
29 -22 2 0 -23 -28 -26 -95 -10 -22 5 -78 12 -125 15 -365 24 -554 62 -820
165 -114 45 -330 146 -330 155 0 12 46 45 57 41 24 -9 74 16 89 45 16 32 16
31 -40 44 -18 4 -32 2 -36 -5 -4 -7 -45 -12 -101 -14 -52 -1 -101 -6 -111 -10
-17 -8 -102 30 -169 75 -201 135 -287 198 -359 265 -47 44 -101 91 -120 106
-46 36 -32 47 17 14 95 -63 370 -199 483 -239 122 -43 371 -96 453 -96 46 0
47 0 49 32 2 44 1 50 -7 69 -5 13 -2 17 12 15 15 -1 18 -7 15 -31 l-5 -31 24
20 c13 11 26 22 29 24 3 2 -3 1 -12 -2 -12 -4 -15 -2 -11 9 3 7 11 14 19 14
19 0 17 24 -3 42 -10 9 -65 35 -123 57 -105 42 -241 125 -292 178 -68 71 -168
195 -168 209 0 5 -14 22 -30 38 -17 16 -30 37 -30 46 0 10 -6 23 -14 29 -8 7
-21 35 -31 64 -22 69 -38 107 -46 107 -4 0 -10 17 -14 37 -4 21 -15 55 -26 77
-13 27 -16 43 -9 50 18 18 11 51 -12 61 -13 6 -24 17 -26 26 -2 12 7 16 43 17
59 3 67 5 82 19 15 13 18 37 4 29 -5 -3 -11 7 -13 23 -3 21 -1 28 9 24 7 -3
10 -9 7 -14 -13 -21 23 -6 39 16 21 30 15 45 -19 45 -14 0 -24 6 -24 14 0 8
-6 16 -12 19 -9 3 -6 12 10 30 13 13 25 31 26 38 6 27 26 69 33 69 5 0 25 15
47 34 21 19 44 32 51 30 16 -7 27 21 19 52 -5 20 -2 26 15 31 11 3 21 11 21
18 0 7 6 18 14 24 8 7 18 27 21 44 12 61 15 65 35 60 11 -3 20 -1 20 5 0 10
-29 26 -42 24 -5 -1 -8 7 -8 18 0 11 6 20 14 20 13 0 32 36 38 74 4 26 66 60
82 46 13 -10 26 -4 26 12 0 5 -4 6 -10 3 -5 -3 -10 3 -10 14 0 17 -5 19 -36
15 -49 -6 -58 3 -29 30 25 23 34 43 15 31 -5 -3 -10 0 -10 7 0 21 16 39 30 36
7 -2 15 3 18 11 3 10 0 12 -12 8 -20 -8 -21 7 -1 26 9 10 11 17 4 19 -6 2 -1
15 11 31 12 15 26 42 31 61 6 21 17 36 30 39 12 3 18 10 15 16 -4 6 -2 19 3
30 8 15 7 20 -5 25 -9 4 -23 1 -30 -5 -7 -6 -18 -8 -23 -4 -6 3 -13 -7 -17
-22 -4 -15 -12 -31 -18 -35 -7 -5 -4 -13 9 -23 17 -14 17 -16 3 -11 -23 7 -51
-55 -44 -95 4 -26 2 -28 -23 -23 -23 5 -29 1 -45 -36 -10 -23 -28 -45 -40 -50
-30 -11 -35 -1 -8 20 26 21 28 36 7 44 -18 6 -16 24 4 46 11 12 15 12 19 2 5
-17 37 34 56 89 13 37 12 41 -14 41 -3 1 -17 -2 -32 -6 -22 -5 -28 -3 -28 10
0 14 8 16 51 12 42 -4 49 -3 44 10 -4 11 -2 12 8 4 15 -13 37 2 37 25 0 6 8
16 17 22 10 5 15 13 11 17 -4 4 -14 1 -23 -6 -8 -7 -15 -9 -15 -4 0 4 -6 -1
-14 -11 -8 -11 -19 -16 -30 -12 -9 4 -16 2 -16 -4 0 -5 -10 -7 -23 -4 -15 4
-28 1 -36 -9 -8 -9 -20 -16 -28 -16 -7 0 -17 -8 -20 -17 -4 -10 -17 -32 -30
-49 -13 -17 -23 -36 -23 -42 0 -7 -9 -12 -20 -12 -11 0 -20 -7 -20 -15 0 -8
-4 -15 -10 -15 -5 0 -10 -7 -10 -15 0 -9 -11 -20 -24 -25 -18 -7 -23 -14 -19
-29 3 -12 1 -21 -6 -21 -6 0 -11 -7 -11 -15 0 -8 -6 -15 -14 -15 -8 0 -17 -6
-19 -12 -4 -10 -6 -10 -6 0 -1 6 -6 12 -12 12 -6 0 -8 -7 -5 -16 4 -9 -6 -26
-25 -44 -17 -15 -28 -33 -25 -39 4 -6 0 -11 -11 -11 -16 0 -62 -61 -115 -155
-30 -53 -31 -57 -17 -66 11 -7 11 -9 -2 -9 -9 0 -23 -7 -30 -17 -12 -14 -15
-8 -21 48 -4 35 -10 75 -13 89 -3 14 -8 43 -11 65 -3 22 -8 47 -11 55 -3 8 -8
33 -9 54 -4 42 -19 66 -40 66 -16 0 -19 26 -4 35 6 3 10 22 10 41 0 19 -4 34
-10 34 -5 0 -10 -9 -10 -20 0 -53 -54 -74 -66 -25 -5 20 -8 21 -29 11 -17 -8
-21 -14 -13 -23 7 -9 7 -13 -1 -13 -13 0 -58 -70 -53 -83 1 -4 -5 -10 -13 -13
-19 -8 -20 -24 0 -24 8 0 19 -9 25 -20 8 -15 8 -20 -1 -20 -6 0 -9 -6 -6 -13
3 -8 1 -20 -4 -28 -8 -12 -10 -12 -19 1 -8 13 -10 12 -10 -2 0 -10 -5 -18 -11
-18 -6 0 -9 -9 -6 -19 5 -20 -25 -41 -31 -22 -2 5 -14 0 -28 -11 -25 -23 -32
-43 -11 -35 7 3 12 -5 13 -22 1 -19 -8 -34 -32 -51 -18 -14 -30 -27 -28 -29 2
-2 -1 -10 -7 -18 -9 -10 -8 -13 5 -13 25 0 19 -21 -18 -67 -33 -42 -33 -42
-54 -23 -14 13 -23 16 -28 9 -3 -6 -2 -14 3 -18 13 -8 -2 -51 -17 -51 -6 0
-18 -7 -26 -15 -9 -8 -11 -15 -5 -15 16 0 13 -26 -5 -41 -14 -12 -14 -14 0
-19 13 -4 13 -9 3 -30 -7 -14 -22 -26 -34 -28 -18 -3 -24 5 -36 50 -16 54 -76
346 -97 473 -7 39 -16 79 -20 90 -14 33 -21 168 -21 369 1 154 5 211 22 291
12 55 25 108 30 117 5 9 9 29 9 43 0 18 6 29 20 32 11 3 18 9 15 13 -3 5 2 15
10 23 19 20 19 47 0 47 -11 0 -13 4 -6 18 5 9 21 65 36 124 15 59 34 113 41
119 8 6 14 19 14 29 0 10 7 20 15 24 8 3 15 10 15 16 0 6 -4 8 -10 5 -5 -3
-10 -2 -10 3 0 15 76 157 103 194 13 18 32 47 40 63 8 17 42 58 74 91 32 33
96 101 143 151 59 62 101 98 135 114 28 12 51 23 51 23 1 1 5 12 8 26 6 19 5
21 -3 10 -7 -10 -11 -11 -11 -2 0 16 -46 15 -85 -2z m3051 -3516 c32 -6 75
-14 94 -20 19 -5 70 -14 113 -21 42 -6 85 -18 95 -26 16 -13 15 -14 -5 -10
-13 3 -23 2 -23 -3 0 -12 44 -20 50 -9 4 6 26 -1 53 -17 51 -28 55 -40 37
-106 -14 -48 -24 -54 -50 -28 -17 17 -19 24 -10 36 7 7 10 21 6 29 -7 19 -38
13 -112 -21 -28 -13 -54 -24 -58 -24 -4 0 -26 -13 -49 -30 -51 -36 -140 -57
-274 -66 l-100 -7 -17 48 c-18 56 -17 63 9 35 15 -17 31 -20 96 -20 43 0 80 4
84 10 3 5 -8 22 -26 37 -29 26 -79 110 -79 133 0 15 88 12 146 -4 79 -22 94
-25 99 -15 10 15 -89 57 -164 68 -41 6 -78 14 -82 17 -40 24 58 32 167 14z
m-393 -48 c-6 -57 17 -145 58 -219 33 -59 34 -57 -51 -54 -83 4 -270 61 -270
83 0 9 -50 32 -63 29 -15 -3 -47 20 -47 33 0 7 -23 23 -50 34 -38 16 -62 20
-100 15 -28 -3 -50 -8 -50 -10 0 -2 8 -15 17 -30 10 -14 13 -24 8 -21 -6 2
-24 11 -42 18 -34 15 -59 50 -51 72 3 7 36 23 74 35 118 38 256 58 420 60
l153 2 -6 -47z m440 -402 c-4 -14 2 -23 20 -31 14 -7 30 -25 36 -40 9 -27 8
-30 -37 -56 -26 -15 -53 -33 -60 -40 -7 -7 -18 -13 -24 -13 -5 0 -24 -7 -41
-14 -79 -36 -306 -96 -364 -96 -14 0 -14 2 3 14 18 14 18 15 2 21 -21 8 -24
22 -5 22 6 0 52 10 100 22 49 11 101 21 115 21 15 0 58 14 97 30 38 17 74 30
81 30 6 0 23 11 38 24 29 24 33 48 21 99 -6 21 -4 27 8 27 10 0 13 -6 10 -20z"/>
<path d="M3500 5349 c-61 -85 -111 -294 -91 -379 17 -71 13 -146 -8 -188 -31
-61 -209 -219 -226 -200 -1 2 3 26 10 53 7 28 16 81 20 119 4 43 18 93 36 133
34 75 35 83 10 76 -10 -3 -22 0 -25 6 -14 22 -36 -5 -75 -92 -48 -111 -71
-194 -71 -262 0 -58 -18 -131 -40 -162 -21 -28 -179 -133 -201 -133 -10 0 -43
-11 -73 -24 -40 -18 -64 -37 -90 -73 -61 -83 -119 -218 -136 -312 -5 -31 -14
-75 -18 -98 -10 -47 1 -79 18 -53 5 8 10 24 10 35 0 21 9 39 69 145 17 30 35
65 41 78 21 49 110 169 151 205 37 32 153 107 165 107 3 0 -3 -16 -11 -37 -30
-72 -85 -310 -85 -370 0 -37 6 -42 40 -32 14 4 19 7 13 8 -25 2 -4 121 21 121
15 0 26 25 51 120 9 36 21 76 26 90 4 14 10 39 14 55 3 17 19 48 35 70 16 22
38 56 49 76 18 32 77 83 170 147 18 13 40 30 48 38 20 20 31 18 39 -8 4 -14 1
-25 -8 -32 -12 -9 -14 -29 -10 -98 6 -108 -2 -123 -129 -239 -116 -107 -133
-139 -127 -235 3 -44 12 -83 21 -98 10 -14 17 -36 17 -50 0 -13 10 -37 23 -53
13 -15 31 -57 41 -93 40 -149 57 -200 68 -200 11 0 7 75 -8 150 -7 33 -7 34
10 17 19 -19 36 -22 36 -7 0 12 -41 122 -50 135 -20 28 -40 117 -40 181 0 68
2 75 38 121 45 58 72 96 92 131 9 15 27 47 42 72 15 25 34 71 43 103 14 49 15
69 5 124 -6 37 -19 78 -29 92 -20 29 -19 34 24 106 30 50 30 51 27 185 -1 74
2 151 7 170 26 95 45 150 67 197 l25 52 -21 21 c-11 11 -22 20 -24 20 -3 0
-14 -14 -26 -31z"/>
<path d="M4051 5356 c-19 -7 -38 -22 -43 -35 -11 -30 -2 -44 22 -31 10 5 39
10 64 10 40 0 47 -4 59 -27 8 -17 12 -46 9 -70 -5 -48 22 -210 43 -260 15 -36
6 -43 -20 -16 -25 24 -34 57 -34 115 1 89 -64 208 -114 208 -15 0 -18 -5 -14
-22 3 -13 18 -72 33 -133 17 -71 37 -125 56 -152 33 -49 112 -113 139 -113 10
0 20 -4 23 -9 12 -19 144 -91 166 -91 21 0 19 3 -16 23 -23 12 -52 30 -65 39
-19 14 -14 14 26 -3 73 -30 184 -37 224 -13 41 24 39 34 -5 27 -44 -7 -133 13
-196 44 -108 53 -154 143 -163 311 -4 83 -9 112 -27 144 -36 64 -91 82 -167
54z"/>
<path d="M3607 5336 c-3 -8 4 -30 16 -48 28 -42 47 -85 41 -91 -3 -3 -7 -30
-9 -60 -3 -43 0 -55 10 -51 10 4 14 -13 17 -75 2 -45 0 -81 -4 -81 -4 0 -24
32 -43 70 -40 79 -60 92 -50 31 6 -36 3 -43 -38 -89 -39 -44 -46 -58 -52 -112
-7 -59 -5 -65 34 -144 62 -125 58 -206 -22 -376 -44 -94 -61 -175 -52 -249 9
-77 25 -139 39 -150 8 -7 11 25 12 122 1 126 2 135 33 207 18 41 37 80 42 85
4 6 18 46 30 90 30 109 23 171 -30 282 -55 114 -55 166 -1 87 50 -74 69 -161
71 -322 2 -235 3 -241 41 -322 37 -80 129 -200 153 -200 8 0 15 2 15 4 0 2
-24 43 -54 90 -73 117 -80 150 -67 329 6 80 11 183 12 229 0 60 3 77 9 61 5
-13 13 -23 18 -23 14 0 35 -57 27 -70 -9 -14 41 -90 59 -90 8 0 27 -14 43 -31
39 -43 168 -129 193 -129 11 0 20 7 20 15 0 17 -15 32 -101 106 -58 49 -168
212 -222 327 -27 58 -31 80 -44 250 -15 181 -16 189 -50 252 -45 84 -82 113
-96 76z"/>
<path d="M3795 5321 c-7 -12 16 -35 52 -50 27 -11 78 -73 97 -116 5 -11 21
-80 36 -153 29 -139 38 -155 90 -168 26 -6 95 -40 118 -57 11 -9 12 -31 7
-100 -7 -82 -6 -90 15 -112 15 -16 42 -27 86 -35 36 -7 79 -22 97 -34 66 -43
98 -58 113 -52 9 3 29 -3 45 -15 39 -27 48 -17 24 27 -23 43 -74 74 -185 110
-116 38 -130 54 -130 147 0 67 -2 75 -27 99 -34 31 -105 68 -131 68 -11 0 -25
7 -32 15 -16 19 -40 145 -40 210 0 110 -95 225 -185 225 -24 0 -46 -4 -50 -9z"/>
<path d="M2120 5245 c0 -8 -14 -22 -31 -31 -17 -8 -28 -11 -25 -5 4 6 3 11 -2
11 -19 0 -21 -14 -5 -32 9 -10 13 -21 9 -26 -4 -4 -14 2 -22 12 -13 19 -14 19
-14 -7 0 -16 -8 -30 -20 -37 -11 -6 -20 -16 -20 -23 0 -7 -12 -25 -26 -42 -15
-18 -21 -31 -14 -33 7 -3 3 -10 -9 -19 -12 -8 -21 -20 -21 -27 0 -8 -11 -21
-25 -30 -14 -9 -25 -21 -25 -27 0 -6 -13 -24 -30 -41 -16 -16 -30 -35 -30 -42
0 -7 -11 -19 -24 -26 -15 -7 -26 -23 -28 -39 -2 -14 -9 -25 -15 -24 -7 2 -15
-8 -19 -22 -4 -15 -13 -25 -24 -25 -11 0 -22 -5 -26 -12 -4 -7 -3 -8 4 -4 7 4
12 1 12 -7 0 -8 -7 -17 -15 -21 -8 -3 -14 -9 -13 -13 1 -4 -3 -18 -10 -29 -6
-12 -9 -24 -6 -26 10 -11 -17 -60 -30 -55 -8 3 -19 0 -25 -7 -8 -10 -4 -11 20
-8 28 4 30 3 21 -14 -6 -11 -13 -27 -16 -36 -3 -10 -16 -19 -28 -19 -17 -1
-18 -2 -5 -6 21 -5 22 -36 2 -53 -8 -7 -15 -21 -15 -30 0 -10 -6 -20 -12 -23
-7 -2 -10 -7 -6 -11 9 -10 49 12 70 39 10 13 30 26 45 30 15 3 33 15 41 26 7
10 25 19 40 19 23 1 25 2 10 11 -24 13 -23 31 2 47 11 7 20 23 20 36 0 15 14
36 37 56 31 28 35 35 25 51 -7 11 -8 19 -2 19 11 0 60 92 60 115 0 8 7 15 15
15 9 0 20 11 25 24 5 13 13 25 18 27 6 2 12 18 14 34 2 24 0 29 -14 27 -21 -3
-24 21 -5 35 6 6 20 9 30 8 9 -2 17 3 17 11 0 8 9 14 20 14 11 0 22 6 24 13 2
6 7 21 12 32 4 11 7 23 6 26 -1 3 15 21 33 39 19 19 35 39 35 46 0 6 11 28 26
49 14 21 23 47 21 59 l-4 21 -8 -22 c-4 -12 -18 -29 -32 -38 -24 -16 -24 -16
-13 4 6 12 15 21 20 21 6 0 10 7 10 15 0 8 -7 15 -15 15 -8 0 -15 -7 -15 -15z"/>
<path d="M3760 5200 c0 -16 4 -30 10 -30 27 0 43 -54 51 -173 9 -137 19 -166
86 -241 45 -50 46 -54 43 -99 -2 -41 19 -95 41 -102 11 -4 30 -28 43 -53 13
-26 32 -54 42 -63 24 -21 104 -48 163 -55 83 -10 149 -50 247 -151 50 -51 96
-93 102 -93 15 0 -41 104 -77 144 -75 83 -139 124 -243 157 -130 41 -158 67
-158 146 0 71 -19 113 -69 153 -65 53 -93 122 -100 245 l-6 102 -48 57 c-45
52 -91 86 -117 86 -5 0 -10 -13 -10 -30z"/>
<path d="M4328 5073 c-58 -15 34 -147 122 -174 19 -6 50 -18 69 -26 33 -15
112 -20 131 -8 21 13 8 22 -41 28 -42 5 -65 16 -120 59 -38 28 -81 69 -95 90
-26 37 -32 40 -66 31z"/>
<path d="M3001 4607 c-13 -17 -72 -43 -127 -57 -76 -19 -225 -182 -298 -325
-42 -82 -45 -101 -16 -85 11 6 20 17 20 25 0 8 5 15 10 15 6 0 10 6 10 14 0
17 53 103 99 159 101 125 166 181 233 201 31 9 63 26 76 41 12 14 18 25 13 25
-5 0 -14 -6 -20 -13z"/>
<path d="M3841 4374 c3 -33 1 -39 -15 -36 -14 3 -17 -1 -13 -15 3 -10 12 -42
21 -71 8 -29 32 -81 53 -115 31 -50 49 -67 93 -89 30 -15 66 -28 79 -28 35 0
108 -81 125 -139 7 -26 23 -62 34 -81 18 -29 22 -31 28 -16 8 20 -1 115 -16
166 -22 78 -69 123 -226 220 -68 42 -82 61 -114 158 -28 85 -54 109 -49 46z"/>
<path d="M3398 4167 c-7 -7 -25 -20 -39 -29 -64 -41 -84 -378 -22 -378 13 0
14 9 8 55 -7 61 0 95 19 95 9 0 12 -9 8 -27 -3 -21 -1 -25 7 -18 15 15 27 165
14 173 -6 4 -8 22 -6 39 3 18 9 31 13 28 4 -3 12 13 18 35 10 41 4 50 -20 27z"/>
<path d="M4133 3055 c-19 -8 -42 -32 -59 -61 -24 -41 -29 -61 -32 -141 -4 -87
-3 -95 23 -135 16 -24 44 -56 63 -73 35 -29 38 -30 141 -30 96 0 112 3 169 29
59 27 92 59 74 70 -4 2 -50 -4 -102 -15 -52 -10 -118 -19 -147 -19 -48 0 -55
3 -90 41 -60 64 -68 99 -48 204 7 33 62 82 100 89 25 5 35 12 35 25 0 33 -68
42 -127 16z"/>
<path d="M4225 2947 c-20 -15 -34 -75 -35 -142 0 -40 5 -56 25 -78 23 -24 33
-27 83 -26 l57 1 -53 24 -53 24 2 85 c1 47 5 88 10 91 13 8 11 21 -5 27 -8 3
-21 0 -31 -6z"/>
<path d="M4711 2537 c-13 -6 -36 -37 -52 -67 -25 -48 -29 -66 -29 -137 0 -102
19 -156 61 -174 40 -16 54 -2 35 37 -14 28 -20 80 -17 135 1 24 3 25 49 22
l47 -4 0 65 c0 40 -4 65 -10 62 -5 -1 -9 -10 -7 -19 2 -11 -3 -14 -18 -10 -11
3 -20 10 -20 16 0 6 3 8 6 5 8 -9 44 29 44 45 0 8 -11 19 -25 25 -32 15 -34
15 -64 -1z"/>
<path d="M4312 2465 c-17 -14 -35 -25 -42 -25 -20 0 -5 -25 18 -28 16 -3 19 1
15 17 -7 26 26 43 74 39 46 -4 53 -22 16 -41 -15 -9 -28 -19 -28 -24 0 -4 -18
-8 -39 -9 -46 -1 -56 -16 -30 -46 38 -41 137 2 195 84 22 30 22 31 4 44 -12 9
-45 14 -86 14 -57 0 -72 -4 -97 -25z"/>
<path d="M7433 2266 c4 -9 4 -23 1 -31 -8 -21 -41 -19 -46 3 -4 13 -15 19 -38
20 -17 0 -34 3 -37 6 -11 10 -43 -15 -43 -34 0 -10 -6 -23 -13 -27 -23 -14
-45 -54 -40 -72 3 -12 -3 -24 -16 -33 -12 -8 -18 -18 -15 -21 4 -4 -1 -9 -10
-13 -22 -9 -20 -24 4 -24 30 0 14 -28 -21 -35 -24 -5 -29 -11 -24 -26 4 -13 2
-19 -9 -19 -9 0 -16 -4 -16 -10 0 -5 -5 -10 -11 -10 -13 0 -39 -25 -39 -37 0
-5 -13 -24 -30 -43 -31 -37 -41 -90 -16 -90 8 0 18 -5 22 -11 4 -8 -3 -9 -25
-4 -20 4 -31 3 -31 -4 0 -6 -7 -11 -15 -11 -20 0 -38 -38 -37 -77 1 -26 -3
-33 -18 -33 -12 0 -22 -11 -30 -34 -6 -19 -16 -37 -23 -39 -9 -3 -8 -8 2 -21
8 -9 20 -15 28 -12 7 3 13 0 13 -7 0 -7 -15 -17 -32 -22 -26 -8 -33 -15 -32
-33 1 -19 -3 -22 -20 -18 -32 8 -96 -67 -96 -114 0 -29 4 -36 20 -36 11 0 20
6 20 13 0 8 12 13 30 13 17 0 30 -4 30 -10 0 -5 7 -10 15 -10 8 0 15 7 15 15
0 28 28 15 32 -14 2 -17 1 -28 -3 -26 -4 3 -12 -9 -19 -25 -7 -17 -15 -30 -19
-30 -3 0 -7 -16 -8 -35 -2 -36 10 -47 21 -19 3 8 10 12 16 9 6 -4 10 5 10 19
0 14 4 26 8 26 5 0 14 12 21 27 8 16 15 23 19 16 5 -7 16 -3 35 13 22 19 26
29 21 51 -4 16 -3 25 1 21 18 -17 85 98 70 122 -4 6 -2 17 4 24 17 20 2 46
-25 46 -15 0 -24 6 -24 15 0 8 0 18 0 23 0 4 5 7 10 7 6 0 10 5 9 10 0 6 -7 9
-16 7 -15 -3 -15 -2 0 12 20 20 38 20 63 1 16 -12 17 -16 5 -24 -21 -14 -6
-41 18 -34 12 3 22 9 22 14 1 5 2 14 3 19 0 6 6 14 11 18 16 11 46 62 38 63
-5 0 2 4 15 9 12 5 25 17 29 27 4 10 18 30 32 46 14 16 26 33 26 37 0 5 3 12
8 16 4 4 7 13 7 21 0 7 9 22 20 33 11 11 20 27 20 35 0 8 8 15 18 15 14 0 17
8 17 43 -1 29 4 48 17 60 15 15 16 22 7 33 -11 14 -10 15 14 18 6 0 14 14 15
31 3 25 31 76 52 95 3 3 6 12 7 20 0 8 3 26 5 40 2 21 -1 26 -26 28 -23 3 -28
0 -23 -12z"/>
<path d="M5402 2106 c-56 -47 -90 -60 -162 -61 -25 0 -47 -4 -49 -10 -8 -19
71 -56 109 -52 45 6 164 80 178 113 31 67 -2 71 -76 10z"/>
<path d="M6673 1239 c-7 -18 -10 -36 -7 -41 3 -5 -2 -15 -12 -23 -18 -13 -18
-14 -1 -21 10 -3 16 -13 13 -20 -3 -7 1 -17 8 -21 8 -5 15 -17 18 -28 2 -11
12 -21 23 -22 17 -2 17 -2 3 5 -12 5 -15 11 -8 22 7 12 12 12 22 2 19 -19 38
-15 65 14 25 27 24 68 -1 58 -8 -3 -16 4 -19 17 -4 15 -1 23 14 26 10 3 19 9
19 14 0 16 -5 24 -14 21 -4 -1 -14 2 -21 8 -9 8 -15 6 -20 -7 -5 -10 -7 -22
-6 -26 1 -5 -6 -7 -16 -5 -11 2 -19 14 -21 31 -4 36 -25 34 -39 -4z"/>
<path d="M3167 688 c-42 -21 -53 -36 -39 -50 7 -7 17 -6 32 2 22 12 23 11 15
-21 -4 -19 -11 -68 -15 -109 -5 -41 -10 -84 -12 -95 -3 -18 2 -20 52 -17 30 2
75 -1 99 -7 42 -9 46 -8 73 21 27 29 36 62 20 72 -5 3 -24 -6 -43 -19 -31 -22
-38 -22 -82 -12 -46 11 -47 13 -41 42 8 38 21 47 61 40 34 -6 73 20 73 50 0
12 -12 13 -65 8 -61 -5 -65 -4 -65 14 0 17 9 21 59 27 62 7 98 32 88 61 -5 12
-11 13 -30 4 -16 -7 -43 -8 -84 -2 -51 8 -67 7 -96 -9z"/>
<path d="M3715 696 c-14 -10 -19 -29 -22 -76 -4 -61 -3 -62 20 -58 l24 5 -17
-45 c-12 -30 -26 -48 -48 -59 -41 -20 -64 -47 -56 -67 7 -19 35 -21 52 -4 9 9
18 9 37 0 34 -16 57 -15 80 2 18 13 18 14 -8 38 -36 34 -35 58 2 58 34 0 61
-23 61 -50 0 -10 12 -28 27 -40 l28 -22 27 33 c33 39 36 65 8 74 -25 8 -66 78
-74 127 -13 75 -90 121 -141 84z"/>
<path d="M3442 677 c-18 -19 -22 -36 -22 -83 0 -32 -5 -86 -10 -119 -9 -56 -8
-61 13 -78 12 -9 33 -16 47 -15 20 3 24 8 22 28 -11 96 -13 232 -3 244 13 16
4 46 -13 46 -7 0 -22 -10 -34 -23z"/>
<path d="M3975 664 c-15 -15 -16 -29 -11 -88 3 -39 2 -93 -3 -121 -6 -31 -6
-56 0 -67 11 -21 64 -25 72 -5 3 7 2 63 -3 123 -4 60 -7 122 -6 139 1 35 -23
45 -49 19z"/>
<path d="M4930 662 c-32 -10 -50 -34 -40 -53 7 -11 7 -27 0 -43 -5 -14 -5 -28
-1 -30 5 -3 11 -37 15 -75 6 -58 11 -71 27 -76 13 -4 28 0 40 11 12 11 19 13
19 5 0 -8 7 -10 20 -6 10 3 28 1 40 -5 15 -8 31 -7 63 4 l42 14 2 59 c1 32 2
64 2 71 1 6 10 12 21 12 18 0 20 -7 20 -68 0 -40 5 -73 12 -80 17 -17 53 -15
68 3 10 13 10 19 -4 33 -22 25 -22 102 0 102 11 0 14 8 12 28 -2 15 -8 26 -16
24 -7 -1 -17 9 -22 23 -13 34 -50 34 -50 0 0 -26 -3 -27 -70 -27 -86 1 -110
-18 -110 -87 0 -26 -6 -56 -14 -67 -15 -19 -15 -19 -30 1 -18 24 -21 86 -5
102 9 9 8 18 -4 36 -14 22 -14 26 1 40 15 16 15 18 -4 35 -11 10 -26 16 -34
14z"/>
<path d="M4480 640 c-6 -11 -8 -25 -5 -30 4 -6 -1 -17 -10 -26 -14 -14 -18
-15 -33 -1 -28 24 -46 25 -69 4 -19 -17 -23 -18 -23 -5 0 9 -12 19 -27 23 -23
5 -32 2 -47 -18 l-18 -25 -39 21 c-38 20 -41 20 -68 4 -15 -9 -31 -14 -34 -11
-3 3 -15 3 -26 -1 -19 -6 -21 -14 -21 -91 0 -83 0 -85 27 -95 16 -6 36 -18 45
-26 11 -10 18 -12 18 -5 0 7 5 12 10 12 6 0 10 -18 10 -40 0 -32 5 -43 26 -57
25 -16 27 -16 39 1 9 12 12 35 8 72 -3 30 -3 54 1 54 4 0 18 -8 32 -17 22 -14
31 -15 60 -4 28 10 37 10 55 -2 29 -21 55 -10 66 26 l10 32 12 -26 c11 -22 10
-31 -4 -53 -10 -14 -13 -26 -9 -26 5 0 2 -5 -6 -10 -13 -8 -13 -10 0 -10 11 0
11 -3 2 -12 -21 -21 -13 -27 18 -15 23 9 29 16 24 30 -4 12 -2 17 4 13 6 -3 8
1 6 11 -2 11 8 27 27 42 27 21 32 22 47 9 28 -24 48 -27 76 -12 24 12 31 11
53 -3 24 -16 26 -16 43 4 15 20 19 20 33 6 19 -19 62 -11 76 16 8 13 5 28 -8
55 -15 28 -17 44 -10 74 5 20 9 42 9 49 0 17 -64 27 -88 14 -17 -9 -23 -8 -30
6 -8 14 -16 15 -53 5 -24 -6 -57 -13 -72 -17 -27 -5 -27 -7 -21 -55 7 -49 -14
-120 -36 -120 -14 0 -24 110 -11 123 14 14 15 47 1 47 -6 0 -8 10 -4 24 4 18
0 28 -17 40 -30 21 -36 20 -49 -4z"/>
<path d="M5339 587 c-30 -20 -34 -28 -37 -72 -7 -107 22 -142 113 -136 62 3
103 55 54 68 -20 6 -21 11 -16 62 7 61 2 75 -28 83 -11 3 -27 9 -36 12 -8 4
-30 -3 -50 -17z"/>
<path d="M2333 52 l-2333 -2 0 -25 0 -25 4140 0 4140 0 0 25 0 25 -1794 0
c-987 0 -1800 1 -1808 3 -7 1 -1063 1 -2345 -1z"/>
</g>
</svg>
